<?xml version="1.0" standalone="no"?>
<!DOCTYPE svg PUBLIC "-//W3C//DTD SVG 20010904//EN"
 "http://www.w3.org/TR/2001/REC-SVG-20010904/DTD/svg10.dtd">
<svg version="1.0" xmlns="http://www.w3.org/2000/svg"
 width="3508.000000pt" height="4961.000000pt" viewBox="0 0 3508.000000 4961.000000"
 preserveAspectRatio="xMidYMid meet">

<g transform="translate(0.000000,4961.000000) scale(0.100000,-0.100000)"
fill="#000000" stroke="none">
<path d="M20010 42784 c-388 -84 -808 -506 -1443 -1451 -158 -236 -263 -399
-592 -923 -255 -406 -446 -700 -455 -700 -3 0 -43 65 -89 143 -1094 1846
-1753 2686 -2250 2867 -115 42 -237 55 -332 36 -90 -19 -197 -71 -264 -128
-99 -86 -495 -648 -709 -1008 -487 -815 -845 -1688 -1080 -2635 -163 -656
-258 -1292 -308 -2060 -16 -257 -17 -1123 0 -1390 53 -864 163 -1628 348
-2425 42 -182 110 -447 121 -476 3 -8 -132 78 -299 189 -572 382 -1019 644
-1568 918 -1321 660 -2626 1023 -4000 1113 -227 15 -945 18 -1160 5 -181 -10
-298 -19 -340 -24 -19 -2 -66 -7 -105 -10 -95 -8 -472 -54 -575 -71 -218 -35
-514 -91 -800 -154 -335 -72 -981 -260 -1110 -322 -115 -55 -221 -160 -273
-268 -156 -324 -35 -738 408 -1400 251 -375 506 -702 1174 -1504 310 -373 501
-610 501 -623 0 -5 -161 -46 -358 -92 -995 -230 -1552 -380 -2037 -548 -272
-94 -345 -123 -554 -217 -610 -277 -858 -601 -750 -981 19 -67 52 -123 181
-305 486 -689 1107 -1351 1761 -1878 1014 -818 2221 -1458 3550 -1883 815
-260 1557 -423 2497 -549 212 -29 602 -65 850 -80 96 -6 207 -12 245 -15 39
-2 128 -4 198 -5 77 0 126 -4 122 -9 -3 -6 -83 -68 -178 -140 -348 -262 -472
-360 -756 -595 -601 -498 -1136 -1018 -1602 -1556 -694 -802 -1248 -1674
-1654 -2605 -556 -1276 -844 -2699 -845 -4175 0 -327 4 -359 64 -485 127 -269
400 -386 826 -354 488 37 1147 252 2510 819 334 139 707 289 758 304 12 4 22
3 22 -2 0 -5 -9 -121 -20 -258 -35 -449 -69 -989 -87 -1374 -11 -258 -8 -928
6 -1110 54 -721 182 -1072 456 -1253 38 -25 132 -62 185 -72 53 -11 197 -5
250 10 854 247 1817 707 2598 1240 300 205 724 532 932 719 25 23 83 75 130
116 409 365 850 832 1231 1305 900 1117 1677 2513 2169 3895 34 96 63 176 65
178 1 1 44 -120 94 -270 670 -1987 1577 -3522 2796 -4733 203 -201 476 -449
656 -596 813 -664 1614 -1144 2619 -1572 96 -41 220 -91 275 -112 55 -21 123
-46 150 -57 59 -23 335 -121 417 -148 122 -40 249 -49 357 -26 278 61 474 322
565 753 63 301 81 539 80 1093 0 445 -4 562 -45 1270 -10 190 -23 422 -29 515
-15 265 -23 505 -18 505 3 0 120 -50 259 -111 1263 -551 1973 -814 2548 -944
135 -30 196 -41 355 -64 92 -13 333 -10 419 5 258 46 441 203 502 430 31 112
30 894 0 1189 -2 22 -7 76 -10 120 -38 489 -155 1143 -300 1674 -51 187 -57
206 -150 491 -434 1328 -1181 2630 -2199 3835 -642 760 -1463 1541 -2194 2084
-61 47 -111 85 -110 87 2 1 66 5 143 8 77 3 192 8 255 11 144 7 371 20 515 30
229 17 353 27 375 30 14 2 59 6 100 10 435 38 1113 141 1576 240 1547 333
2931 954 4094 1839 542 413 1077 913 1536 1436 321 366 847 1061 953 1260 93
175 102 362 26 526 -71 155 -169 263 -345 379 -412 272 -1065 474 -2515 780
-545 115 -910 198 -924 211 -2 1 145 189 326 416 379 475 450 566 634 813 594
793 921 1354 1025 1760 38 148 41 332 7 440 -45 142 -148 268 -272 333 -113
60 -758 237 -1071 295 -37 7 -202 38 -225 43 -49 10 -134 24 -175 29 -25 3
-70 10 -100 15 -97 16 -436 56 -565 66 -44 3 -90 7 -103 9 -162 25 -1100 26
-1417 2 -121 -10 -240 -20 -265 -22 -383 -43 -523 -62 -830 -116 -265 -46
-734 -150 -925 -205 -27 -8 -135 -39 -240 -68 -1030 -293 -2127 -778 -3148
-1390 -339 -203 -607 -380 -1006 -664 -15 -10 -7 27 41 185 300 1007 482 1906
563 2788 32 352 39 543 39 990 0 466 -7 620 -45 1005 -161 1633 -730 3195
-1694 4650 -315 477 -407 586 -547 654 -134 66 -256 81 -398 50z m258 -807
c921 -1319 1497 -2736 1706 -4197 66 -460 85 -716 93 -1220 8 -540 -13 -915
-78 -1439 -110 -887 -304 -1710 -674 -2856 -95 -292 -106 -336 -103 -386 8
-109 105 -257 216 -327 135 -86 322 -80 492 16 88 49 116 62 330 149 355 143
852 297 1225 379 39 9 79 18 90 20 42 10 372 73 415 79 25 3 52 8 60 10 8 2
40 7 70 10 30 3 66 8 80 10 31 5 85 12 170 21 106 11 121 12 210 19 47 3 114
8 150 11 89 7 589 7 670 0 36 -3 97 -8 135 -11 82 -7 169 -15 205 -20 14 -2
48 -6 75 -10 83 -10 238 -36 275 -45 19 -5 55 -12 79 -15 127 -18 509 -131
700 -207 97 -38 140 -43 199 -24 86 29 142 108 142 201 0 68 -25 121 -73 158
-51 39 -213 97 -557 202 -129 39 -517 120 -679 141 -19 2 -46 6 -60 9 -23 4
-111 12 -306 30 -153 13 -239 16 -487 16 -150 0 -300 -2 -333 -5 -33 -3 -103
-8 -155 -11 -280 -17 -801 -93 -1085 -159 -11 -2 -31 -7 -45 -10 -14 -3 -74
-17 -133 -32 -60 -14 -110 -24 -112 -22 -5 5 427 261 620 367 1178 649 2354
1085 3565 1320 184 36 427 75 564 91 54 6 108 13 119 16 19 3 275 29 387 39
320 27 1283 28 1450 1 14 -2 61 -7 105 -10 180 -14 450 -51 710 -96 357 -62
621 -124 988 -232 l109 -32 -6 -41 c-28 -182 -224 -563 -509 -990 -268 -401
-576 -808 -1172 -1550 -502 -625 -493 -613 -502 -744 -6 -89 15 -155 72 -233
121 -164 357 -242 1400 -462 292 -61 558 -118 655 -141 58 -13 148 -33 200
-45 106 -24 553 -138 670 -170 131 -37 441 -141 552 -186 196 -79 372 -177
427 -238 l25 -26 -90 -132 c-116 -171 -353 -491 -504 -678 -524 -651 -1097
-1209 -1740 -1693 -1063 -801 -2253 -1345 -3670 -1676 -473 -110 -1155 -219
-1675 -266 -38 -3 -88 -8 -110 -10 -78 -8 -350 -28 -535 -40 -172 -11 -441
-23 -675 -30 -213 -7 -230 -9 -360 -42 -294 -75 -445 -226 -445 -446 0 -62 32
-218 56 -276 16 -36 73 -105 199 -240 218 -235 542 -667 771 -1031 153 -243
266 -445 398 -710 364 -732 565 -1412 626 -2125 11 -126 16 -638 6 -653 -9
-16 16 -98 41 -134 32 -47 111 -88 170 -88 92 0 182 73 204 167 12 52 12 548
0 705 -71 895 -364 1807 -868 2697 -35 62 -62 115 -60 117 7 7 549 -537 713
-716 296 -324 458 -515 740 -875 144 -183 418 -568 559 -785 825 -1270 1336
-2588 1529 -3945 60 -418 76 -646 83 -1126 l6 -417 -39 -4 c-145 -17 -423 28
-744 120 -309 90 -580 181 -890 302 -74 29 -155 61 -180 70 -143 54 -618 255
-1090 460 -91 40 -201 87 -245 105 -44 18 -102 43 -130 55 -27 12 -110 46
-184 76 -116 47 -145 55 -203 55 -112 1 -171 -23 -254 -106 -80 -78 -105 -129
-131 -270 -23 -122 -22 -610 2 -940 3 -33 9 -143 15 -245 6 -102 15 -257 20
-345 30 -498 34 -645 35 -1105 0 -521 -5 -626 -45 -875 -28 -177 -90 -375
-118 -375 -19 0 -393 136 -587 213 -358 143 -624 264 -960 436 -1213 622
-2216 1439 -3051 2486 -191 240 -413 549 -573 800 -251 392 -392 640 -594
1045 -132 263 -169 342 -254 535 -24 55 -50 114 -58 130 -7 17 -46 109 -86
205 -189 457 -368 959 -546 1530 -47 151 -93 291 -103 310 -24 46 -84 102
-137 129 -76 38 -209 64 -293 58 -202 -16 -326 -110 -480 -365 -111 -183 -108
-178 -204 -317 -302 -439 -624 -825 -1006 -1204 -688 -684 -1418 -1161 -2194
-1433 -142 -50 -204 -68 -405 -119 -140 -35 -178 -54 -216 -108 -39 -56 -47
-148 -17 -207 38 -74 113 -124 185 -124 69 0 488 118 682 192 592 227 1117
527 1635 937 349 276 772 684 1075 1036 65 77 -350 -785 -565 -1170 -586
-1050 -1191 -1865 -1950 -2626 -569 -570 -1015 -928 -1710 -1374 -252 -161
-872 -486 -1150 -603 -232 -97 -452 -181 -665 -253 -266 -91 -239 -95 -284 46
-114 355 -139 1078 -76 2145 8 146 17 285 20 310 2 25 6 83 10 130 3 47 16
231 30 410 46 615 50 699 30 766 -50 174 -185 269 -382 265 -163 -2 -431 -86
-913 -286 -102 -42 -201 -83 -220 -90 -19 -7 -170 -69 -335 -138 -387 -161
-710 -289 -925 -367 -313 -113 -421 -149 -610 -203 -136 -39 -223 -60 -440
-107 -80 -17 -309 -24 -343 -11 l-29 11 7 258 c19 801 80 1379 216 2042 240
1166 716 2296 1388 3295 225 335 500 692 777 1011 512 588 1190 1223 1875
1754 257 200 552 421 654 492 33 22 103 84 156 137 102 102 154 187 184 301
45 169 -9 345 -145 474 -102 96 -157 123 -297 147 -372 62 -896 210 -1344 380
-1286 485 -2291 1212 -2902 2099 -114 166 -135 190 -182 211 -169 77 -351 -97
-280 -267 21 -50 186 -287 296 -425 369 -461 824 -872 1354 -1224 315 -209
762 -452 1100 -599 72 -31 139 -61 150 -66 79 -38 -738 100 -1190 200 -817
181 -1673 466 -2387 796 -1556 718 -2772 1705 -3708 3008 -71 99 -90 133 -83
145 22 36 156 126 278 185 292 144 584 250 1092 400 202 59 327 93 688 186 66
17 417 100 780 185 363 85 693 164 733 175 102 28 163 70 224 150 57 76 75
227 39 331 -67 197 -183 355 -836 1139 -674 810 -986 1221 -1210 1590 -124
204 -235 458 -235 536 l0 29 245 73 c222 67 579 160 745 197 515 111 919 176
1325 211 39 3 81 7 95 9 40 6 223 16 411 24 275 11 759 4 979 -14 30 -3 89 -7
130 -10 418 -31 965 -120 1420 -231 1492 -365 2912 -1082 4530 -2288 63 -47
138 -97 166 -112 135 -67 301 -27 388 93 67 92 89 245 63 433 -9 63 -22 187
-29 275 -16 208 -16 908 1 1130 58 787 206 1477 448 2095 73 185 228 510 322
675 93 162 277 434 380 562 49 61 97 126 106 144 19 36 22 120 5 165 -27 71
-113 127 -196 126 -100 -1 -140 -35 -314 -267 -610 -817 -993 -1846 -1135
-3055 -8 -69 -15 -145 -15 -170 -1 -104 -18 -57 -53 143 -157 895 -215 1595
-204 2462 10 750 69 1332 203 2005 268 1342 827 2607 1609 3647 l62 82 43 -25
c160 -91 395 -342 694 -744 301 -403 564 -809 1086 -1675 401 -665 421 -694
534 -753 45 -24 62 -27 146 -27 88 0 101 3 162 33 181 89 319 272 888 1177
485 771 657 1029 906 1360 166 221 308 389 420 496 133 126 255 209 280 189 6
-6 66 -88 132 -183z"/>
<path d="M16338 38751 c-164 -86 -457 -292 -662 -465 -244 -206 -512 -488
-534 -564 -43 -142 54 -275 199 -274 75 1 128 32 193 111 84 103 345 353 483
464 147 118 299 225 446 315 60 36 121 81 137 99 74 84 63 218 -24 290 -72 59
-156 68 -238 24z"/>
<path d="M27635 32028 c-106 -37 -162 -147 -130 -256 19 -64 65 -112 131 -138
85 -33 415 -200 514 -260 190 -116 369 -244 540 -387 135 -114 167 -131 238
-124 115 12 195 98 195 210 0 84 -23 117 -157 230 -347 294 -717 526 -1092
686 -125 53 -175 61 -239 39z"/>
<path d="M5375 29241 c-75 -35 -125 -111 -125 -190 0 -84 113 -470 207 -711
107 -271 299 -645 381 -741 87 -102 232 -105 319 -6 76 87 71 163 -20 315
-192 321 -359 729 -452 1106 -30 124 -41 150 -82 188 -60 58 -153 74 -228 39z"/>
<path d="M25905 18461 c-51 -23 -101 -80 -114 -128 -5 -21 -12 -74 -16 -118
-27 -347 -126 -751 -282 -1144 -57 -145 -64 -170 -59 -210 21 -154 182 -235
316 -160 52 30 73 60 126 191 152 371 255 755 303 1136 26 203 26 274 2 327
-48 104 -174 153 -276 106z"/>
<path d="M12390 15899 c-50 -12 -195 -37 -260 -45 -30 -3 -57 -8 -60 -9 -38
-22 -728 -26 -900 -6 -145 18 -191 16 -237 -8 -73 -37 -114 -104 -114 -184 0
-29 4 -64 10 -78 14 -37 68 -97 104 -116 93 -47 670 -72 1018 -43 127 10 358
40 429 55 14 2 50 10 80 16 119 24 182 81 200 182 11 58 -6 119 -48 167 -59
70 -130 92 -222 69z"/>
</g>
</svg>
